<svg viewBox="0 0 26 29" xmlns="http://www.w3.org/2000/svg" xmlns:xlink="http://www.w3.org/1999/xlink"><title>Logo CrazyGames.com</title><defs/><defs><path id="ziggyPath" d="M.0048.1308h18.9714v15.7638H.0048z"/></defs><g fill="none" fill-rule="evenodd"><g transform="translate(5.9605 12.8654)"><path fill="#FFF" d="M.252 15.0286c.6328-.3904 1.2235-.6568 1.792-.9547l1.6266-.7992c.5146-.27 1.0119-.4942 1.4794-.7455.1176-.0588.2338-.1208.35-.1739.115-.057.226-.1236.3378-.1836l.3324-.1724.164-.0839.1591-.0904c1.7114-.9219 3.042-1.7942 4.2605-2.723 1.214-.9369 2.3523-1.965 3.6034-3.3346.6223-.6851 1.2525-1.4583 1.915-2.3438l.2562-.337c.082-.115.155-.2327.2462-.3505.0853-.1185.1795-.2383.2587-.3614.078-.1234.1702-.2477.2587-.3748l.134-.1923c.0414-.0648.083-.13.1296-.196l.2717-.403c.1915-.2741.362-.5577.5861-.8568l.102-.1363a.2114.2114 0 01.3793.1034c.1301 1.166.098 2.3505-.0505 3.521-.166 1.1684-.46 2.3242-.9032 3.4266-.8803 2.2067-2.3598 4.1853-4.2447 5.6585-.9504.7262-1.9998 1.3164-3.0983 1.774-1.0993.4555-2.2488.7857-3.4177.9621-1.1676.1834-2.3461.2507-3.5182.23l-.877-.0494c-.1464-.0059-.2918-.0202-.437-.0368l-.4358-.0463c-.5823-.047-1.1555-.1618-1.73-.2524a.2105.2105 0 01-.175-.2406.21.21 0 01.0967-.1456l.148-.0914z"/></g><path id="eyesAndEars" fill="#FFF" d="M18.3596 2.9298s3.4315-3.9485 4.532-2.6777c1.8835 2.1757 1.3059 8.7294 1.3059 8.7294M6.798 2.9298S3.3663-1.0187 2.266.252C.3825 2.4278.96 8.9815.96 8.9815M9.8266 11.5491c0-.677.4383-1.2507 1.0468-1.458-.3126-.3155-.746-.512-1.2233-.512-.9477 0-1.7232.7731-1.7232 1.7183v3.8069c0 .945.7755 1.7179 1.7232 1.7179.9477 0 1.723-.773 1.723-1.718v-2.013c-.8542 0-1.5465-.6906-1.5465-1.542M15.684 11.5491c0-.677.4382-1.2507 1.0468-1.458-.3127-.3155-.746-.512-1.2233-.512-.9478 0-1.7232.7731-1.7232 1.7183v3.8069c0 .945.7754 1.7179 1.7232 1.7179.9477 0 1.723-.773 1.723-1.718v-2.013c-.8542 0-1.5465-.6906-1.5465-1.542"/><path fill="#FFF" d="M12.5787 5.089c-2.6793 0-4.5878.502-5.8344 1.5344-1.4764 1.223-2.194 3.3471-2.194 6.494 0 6.663 3.2094 8.0286 8.0284 8.0286 4.819 0 8.0285-1.3655 8.0285-8.0286 0-3.1469-.7176-5.271-2.194-6.494-1.2466-1.0324-3.155-1.5344-5.8345-1.5344m0 20.6073c-3.7903 0-6.6469-.8365-8.7332-2.557C1.2939 21.0353 0 17.6634 0 13.1174c0-4.5227 1.2926-7.8865 3.8418-9.9982C5.9381 1.3829 8.796.5388 12.5788.5388c3.7827 0 6.6406.844 8.7369 2.5803 2.5492 2.1117 3.8418 5.4755 3.8418 9.9983 0 4.546-1.2937 7.9178-3.8455 10.022-2.0863 1.7204-4.943 2.5569-8.7333 2.5569"/><path fill="#E6E1F4" d="M17.6004 25.0586c-1.4532.428-3.1207.6392-5.0242.6392-.6628 0-1.2955-.0272-1.9021-.0786-.3377.1684-.687.3345-1.0455.5224l-1.0506.5164a22.9589 22.9589 0 001.5944.0554c3.054 0 5.501-.5439 7.428-1.6548"/></g></svg>