<svg xmlns="http://www.w3.org/2000/svg" viewBox="0 0 1157.78 413.45"><defs><style>.cls-1{fill:#cccccb;}.cls-2{fill:#d2d2d1;}.cls-3{fill:#bcbbbb;}.cls-4{fill:#f5f6f7;}.cls-5{fill:#e5e5e5;}.cls-6{fill:#43607b;}.cls-7{fill:#30526b;}.cls-8{fill:#ededed;}.cls-9{fill:#fef8df;}.cls-10{fill:#d3d3d3;}.cls-11{fill:#dbdcdd;}.cls-12{fill:#d8d8d8;}.cls-13{opacity:0.5;}.cls-14{fill:#e2e2e2;}.cls-15{fill:#e0e0e0;}.cls-16{fill:#dcdbdb;}.cls-17{fill:#d6d6d6;}.cls-18{fill:#f1f2f8;}.cls-19{fill:#e8e6e7;}.cls-20{fill:#eaeaea;}</style></defs><title>Varlık 4</title><g id="katman_2" data-name="katman 2"><g id="katman_1-2" data-name="katman 1"><path class="cls-1" d="M695.73,134.14l-25.45-4.7a69.44,69.44,0,1,0-87.84-11.09L564.2,117,559,117a5.64,5.64,0,0,0-5.63,4.76l-1.74,11h-.42l-.42,2.62c-3.82-1.68-7.81-3.22-12-4.65-49-16.63-155.15-20.18-186,4.5a43.3,43.3,0,0,0-10,1.91l-56.16,17.57a43.63,43.63,0,0,0-26,21.93l-.45-.19a34.31,34.31,0,0,0,1.22-6.36,42,42,0,0,0,.39-5.32l1.05-3.31a33.31,33.31,0,0,0,1.49-7.25,42.33,42.33,0,0,0-4.52-25.9,43.12,43.12,0,0,0-25.89-21L175.18,90.25c-22.41-6.44-46,6.11-52.58,27.71l-7.39,22.19a5.65,5.65,0,0,1-7.3,3.52c-11.54-4.22-23-8.38-31.48-11.45A42.8,42.8,0,0,0,22.1,156.37C12.51,180,5.34,211.18,4,217.19a41,41,0,0,0-.93,7.34c-1,4-1.68,7.06-2,8.53a42.47,42.47,0,0,0,21,46.78c5.4,3,14.66,6.83,42.1,15.86l-.18.57C58,315.81,53.34,331.32,52,344a110.25,110.25,0,0,0-3.26,20.27c-.09,1.95-.09,3.82,0,5.76a46,46,0,0,0,.65,5.65,34.1,34.1,0,0,0,1.15,4.62l.26.87a30.26,30.26,0,0,0,1.76,4.17l.51,1.06a32.13,32.13,0,0,0,2.36,3.73l.76,1.08a35.86,35.86,0,0,0,2.93,3.29l.95,1a43.34,43.34,0,0,0,3.45,2.87l1.08.86c1.41,1,3,2,4.67,3l.43.25c8.15,4.62,17,6.19,30.51,7.49l19.71,1.49c4,.27,8.32.53,13.62.84l2.71.16c5.05.29,9.12.52,11.23.75a42.76,42.76,0,0,0,40.81-19.59,5.51,5.51,0,0,1,8.07-1.44,98.26,98.26,0,0,0,61.36,21.28h49.38c21.67,0,43.49-7.15,61.92-20a5.34,5.34,0,0,1,6.95.72,46.67,46.67,0,0,0,33.77,14.71h.92c15.41,0,45-1.22,69.92-9.05a56,56,0,0,0,19.83-11.35c11-9.62,17.45-22,17.61-33.59a46.76,46.76,0,0,0-.47-8.84L516,334.85a23.92,23.92,0,0,0-.23-3.18l-1-6.51a5.63,5.63,0,0,1,3.67-6.16l.27-.1a5.7,5.7,0,0,1,7.59,5.89c-2,21.32-3,34.94-3.1,36.94l-.48,6.74-.09,29a5.65,5.65,0,0,0,5.27,5.65l33.35,2.19c35.85,2.35,68.31,3.79,68.44,3.79L657,410.33a5.65,5.65,0,0,0,5.65-4l8-26.13c1.47-4.83,3-12.47,4.7-22.78,8.1-36.64,19-151.85,22.08-186.29l2.8-31A5.64,5.64,0,0,0,695.73,134.14Z"/><path class="cls-2" d="M660.43,153.4c-44.16-9.55-71-10.07-74-10.1l-26.37-.22-3.77,23.82a125,125,0,0,0-23.56-10.66c-50.21-17-154.21-17.94-177.6,3.87L354,161.19a33.07,33.07,0,0,0-10.94,1.54l-56.18,17.58a33.32,33.32,0,0,0-23.24,27.83l-3.56-2.67a33.12,33.12,0,0,0-17.6-6.45l7.9-24.8h0a26.11,26.11,0,0,0,1.1-5.56,32,32,0,0,0-3.42-19.7,32.83,32.83,0,0,0-19.72-16l-58.74-17.06c-17.06-4.9-35.14,4.83-40.09,21.13L117,174.74c-16-5.88-34.51-12.61-46.78-17.06a32.6,32.6,0,0,0-41.4,18.4c-9.29,22.86-16.29,53.35-17.6,59.21a32.35,32.35,0,0,0,16,35.63c5.51,3.07,16.79,7.53,51.71,18.8-2.56,8-5.31,16.77-7.91,25.37-13.52,44.72-19.69,65.12,3.93,78.49,6.57,3.73,14.3,5.05,26.25,6.19l19.61,1.49c4,.26,8.27.53,13.55.84,6.52.38,11.9.67,14.45.95a32.73,32.73,0,0,0,3.6.19,32.4,32.4,0,0,0,30.32-20.74c.71-1.81,2-5.27,4.9-13.85a88.08,88.08,0,0,0,70.31,34.59h49.38c25.79,0,50.54-11.14,68.56-28.39a36.86,36.86,0,0,0,34.09,23.81h.9c15,0,43.29-1.18,66.88-8.59,15.12-4.73,30.08-20.28,30.29-35.62a36.44,36.44,0,0,0-.38-7l-4.75-34.11c13.14-3.73,22.68-7.52,36.47-14.75-3.93,38.2-5.7,63.43-5.74,63.89l-.47,6.74-.06,24,29.07,1.91c35.39,2.32,68,3.77,68.23,3.78L654.08,400,661,377.23c8-26.43,20-153,23.45-191.15l2.43-27Z"/><path class="cls-3" d="M477.68,385.3c-23.59,7.4-51.87,8.56-66.88,8.58h-.9a36.83,36.83,0,0,1-34.09-23.81c-18,17.25-42.77,28.4-68.56,28.4H257.87a88.11,88.11,0,0,1-70.32-34.59c-2.9,8.57-4.18,12-4.89,13.84a32.39,32.39,0,0,1-30.32,20.75,32.73,32.73,0,0,1-3.6-.19c-2.55-.29-7.93-.58-14.45-1-5.28-.31-9.6-.57-13.55-.83L101.13,395c-11.95-1.15-19.68-2.47-26.25-6.19-10.69-6.05-15.23-13.57-15.8-24.1-.63,13.09,3.57,21.94,15.8,28.86,6.57,3.73,14.3,5.05,26.25,6.19l19.61,1.49c4,.26,8.27.53,13.55.84,6.52.38,11.9.67,14.45.95a32.73,32.73,0,0,0,3.6.19,32.4,32.4,0,0,0,30.32-20.74c.71-1.81,2-5.27,4.89-13.85a88.11,88.11,0,0,0,70.32,34.59h49.38c25.79,0,50.54-11.14,68.56-28.39a36.86,36.86,0,0,0,34.09,23.81h.9c15,0,43.29-1.18,66.88-8.59,15.12-4.73,30.08-20.29,30.29-35.62,0-1.13-.12-2.23-.18-3.35C506.72,366,492.33,380.71,477.68,385.3Z"/><path class="cls-3" d="M661,372.47l-6.92,22.74-23.74-1.06c-.19,0-32.84-1.46-68.23-3.77l-29.06-1.92v4.77l29.07,1.91c35.39,2.32,68,3.77,68.23,3.78L654.08,400,661,377.23"/><path class="cls-4" d="M663.36,137.54c-44.16-9.56-71-10.07-74-10.1L563,127.21,559.26,151a124.51,124.51,0,0,0-23.55-10.65c-50.21-17-154.22-17.95-177.6,3.86l-1.17,1.09A33.09,33.09,0,0,0,346,146.86l-56.18,17.58a33.34,33.34,0,0,0-23.24,27.83L263,189.6a33.12,33.12,0,0,0-17.6-6.45c4-12.65,6.91-21.7,7.9-24.79h0a26.16,26.16,0,0,0,1.1-5.55A32.08,32.08,0,0,0,251,133.1a32.86,32.86,0,0,0-19.73-16l-58.74-17c-17.06-4.91-35.14,4.83-40.08,21.12l-12.55,37.69c-16-5.88-34.51-12.61-46.78-17.06a32.61,32.61,0,0,0-41.4,18.4c-9.29,22.86-16.29,53.35-17.6,59.21a32.37,32.37,0,0,0,15.95,35.64c5.51,3.06,16.79,7.52,51.71,18.79-2.56,8-5.31,16.77-7.91,25.37-13.52,44.72-19.69,65.12,3.93,78.49,6.57,3.73,14.3,5.05,26.25,6.19l19.61,1.5c4,.26,8.28.52,13.55.83,6.53.38,11.9.67,14.46.95a32.52,32.52,0,0,0,33.92-20.55c.7-1.81,2-5.27,4.89-13.84a88.08,88.08,0,0,0,70.31,34.58h49.38c25.8,0,50.54-11.14,68.56-28.39a36.86,36.86,0,0,0,34.09,23.81h.9c15,0,43.29-1.18,66.88-8.58a37.34,37.34,0,0,0,25.26-41L500.66,299a220.21,220.21,0,0,0,41.58-16.27c-3.93,38.21-5.7,63.43-5.73,63.89l-.48,6.74-.06,24L565,379.27c35.39,2.32,68,3.77,68.23,3.78L657,384.11l6.92-22.75c8-26.42,20-153,23.45-191.15l2.43-27Z"/><path class="cls-5" d="M480.08,370.87c-23.59,7.41-51.87,8.57-66.88,8.59h-.9a36.86,36.86,0,0,1-34.09-23.82c-18,17.26-42.77,28.4-68.56,28.4H260.27A88.09,88.09,0,0,1,190,349.46c-2.91,8.58-4.19,12-4.9,13.85a32.4,32.4,0,0,1-30.32,20.74,32.73,32.73,0,0,1-3.6-.19c-2.55-.29-7.92-.57-14.45-1-5.28-.3-9.6-.57-13.55-.83l-19.61-1.49c-12-1.14-19.68-2.46-26.25-6.19-10.74-6.08-15.27-13.65-15.8-24.26-.62,13.06,3.59,21.88,15.8,28.8,6.57,3.72,14.3,5,26.25,6.19l19.61,1.49c4,.26,8.27.52,13.55.83,6.53.38,11.9.67,14.45.95a32.52,32.52,0,0,0,33.92-20.55c.71-1.81,2-5.27,4.9-13.84a88.08,88.08,0,0,0,70.31,34.58h49.38c25.79,0,50.54-11.14,68.56-28.39A36.83,36.83,0,0,0,412.3,384h.9c15,0,43.29-1.18,66.88-8.58a36.44,36.44,0,0,0,25.64-34c0-1-.12-1.92-.16-2.89A36.42,36.42,0,0,1,480.08,370.87Z"/><path class="cls-5" d="M663.4,358l-6.92,22.74-23.74-1.06c-.19,0-32.84-1.46-68.23-3.77L535.45,374v4.53l29.07,1.92c35.39,2.31,68,3.76,68.23,3.77l23.74,1.06,6.92-22.74"/><path class="cls-6" d="M226.53,144.31a9,9,0,0,0-5.36-4.34l-58.7-17a8.88,8.88,0,0,0-10.9,5.77l-20.33,61.08c-17.26-6.56-56.94-21-69.7-25.59a8.85,8.85,0,0,0-11.22,5C41.75,190.26,35.14,219,33.89,224.62a8.74,8.74,0,0,0,4.3,9.63c7.51,4.18,41.34,15.1,70.26,24.22-3.43,10-9.74,29.39-15.25,47.64C79,353,80.94,354.09,86.08,357c4,2.27,14.44,3.43,48.62,5.43,7.31.43,13.36.78,16,1.08a8.74,8.74,0,0,0,9.18-5.54c7.73-19.77,61.18-187.74,67.25-206.83A8.79,8.79,0,0,0,226.53,144.31Z"/><path class="cls-7" d="M151.75,367a12.77,12.77,0,0,1-1.38-.08c-2.61-.29-8.4-.63-15.43-1C98.87,363.74,89,362.59,84.4,360c-8-4.53-8.31-9,5.54-54.84,5-16.56,10.58-33.81,14.18-44.46C76,251.77,44.06,241.41,36.54,237.23a12.11,12.11,0,0,1-6-13.35c1.24-5.6,7.91-34.63,16.58-56A12.26,12.26,0,0,1,62.7,161c18,6.53,49.45,18,66.43,24.36l19.22-57.72a12.2,12.2,0,0,1,15.07-8l58.7,17a12.32,12.32,0,0,1,7.41,6h0a12.14,12.14,0,0,1,.87,9.46c-6.08,19.11-59.59,187.28-67.32,207A12.11,12.11,0,0,1,151.75,367ZM58.51,167.06a5.43,5.43,0,0,0-5,3.4c-8.47,20.85-15,49.39-16.25,54.9a5.36,5.36,0,0,0,2.62,5.92c8.23,4.58,52.84,18.65,69.64,23.94l3.32,1-1.13,3.3c-3.45,10-9.68,29.2-15.22,47.52-13.39,44.3-11.52,45.35-8.7,47,3.72,2.11,18.79,3.34,47.15,5,7.63.44,13.57.79,16.21,1.09,2.69,0,4.81-1.28,5.64-3.4,7.65-19.56,61.1-187.53,67.16-206.62a5.36,5.36,0,0,0-.38-4.2,5.49,5.49,0,0,0-3.31-2.67l-58.69-17a5.47,5.47,0,0,0-6.7,3.49l-21.49,64.53L130,193c-15.82-6-50.43-18.6-69.65-25.57A5.27,5.27,0,0,0,58.51,167.06Z"/><path class="cls-7" d="M116.89,256.17a.74.74,0,0,0-.59.47c-5.51,15.27-30.4,92.44-26.86,94.45,5.18,2.94,51.12,4.57,61.46,5.6a2.8,2.8,0,0,0,2.91-1.81C158,344,172.58,299.11,187.17,253.82a.81.81,0,0,0-.73-1C159.77,251.2,136.73,252.65,116.89,256.17Z"/><path class="cls-7" d="M53.31,169.14s-16.76,50.39-15.94,57.75c.85,2.13-1.28,3.19,17.85,10.63s54.07,17.72,54.07,17.72-56.4-22.4-62.36-30.47S53.31,169.14,53.31,169.14Z"/><path class="cls-7" d="M161.3,343.1c-.55,2.88-4,9.32-5.67,11.62-.1.14.12-.13,0,0-3.67,4.87-10.66,4.79-17.2,4.79H96.53c7.29.94,19,1.8,38.2,2.92,7.31.43,13.36.78,16,1.08a8.74,8.74,0,0,0,9.18-5.54c7.73-19.77,61.57-189.77,67.63-208.85C221.91,166.94,174.28,308.39,161.3,343.1Z"/><path class="cls-6" d="M364.24,189.17c-1.2-5.42-2.06-9.34-2.26-11.44a9.52,9.52,0,0,0-12.35-8.14l-56.22,17.58a9.52,9.52,0,0,0-6.65,10.22c.44,3.63,2.2,11.15,4.66,21.55,4.46,19,12.78,54.32,10.89,63.62-1.06,5.18-6.7,15.75-15,16.71-10.23,1.18-17.12-.07-19.34-3.55-3.94-6.14,1.06-20.73,14.85-43.36,1.12-1.84,2-3.28,2.48-4.18a8.43,8.43,0,0,0-2.48-11.32l-37.61-28.23h0a9.57,9.57,0,0,0-14,2.81c-1.24,2.1-3.1,4.91-5.34,8.29C217.18,233,202.52,255.15,195.08,279a65.19,65.19,0,0,0,62.25,84.61h49.38c35.18,0,69.07-28.27,72.51-60.49a113.24,113.24,0,0,0-.29-25.44C373.35,230.47,367.42,203.6,364.24,189.17Z"/><path class="cls-7" d="M364.31,189.52c3.19,14.43,5.51,27.14,11.7,81,1,8.88,1.28,24.59.42,32.6-3.45,32.23-44.22,60.42-79.93,60.42h10.21c35.18,0,69.07-28.27,72.51-60.49a113.24,113.24,0,0,0-.29-25.44c-5.58-47.16-11.51-74-14.69-88.46"/><path class="cls-7" d="M309.29,277.91a28.38,28.38,0,0,1-.32,6c-1.55,7.66-9,20.73-20.83,22.11-36.52,4.24-30.35-20.43-20.78-39.94a.78.78,0,0,0-.54-1.1,522.91,522.91,0,0,0-53.73-9.75.81.81,0,0,0-.81.42,165.48,165.48,0,0,0-10.12,23.48c-12.65,38.23,16,77.62,56.29,77.62h48.26c30,0,62.56-24.62,65.75-54.42.25-2.28.38-4.69.46-7.15A397.91,397.91,0,0,1,309.29,277.91Z"/><path class="cls-7" d="M244.63,212.19s-5.95-5.78-10.91,0S215.15,249,215.15,249,232.44,212.79,244.63,212.19Z"/><path class="cls-6" d="M558.67,236.82c7.7-10.67,10.54-22.49,8.42-35.13-2.87-17.12-17.17-30.17-42.51-38.77-53-18-142.1-12.1-153.71-1.27l-2.61,2.43.52,3.53c.9,6.15,22.14,151,28.13,180.93A13.05,13.05,0,0,0,409.86,359c11,0,38.64-.74,60.17-7.49a13.06,13.06,0,0,0,8.83-14.38L470.31,281C488.47,277.33,538.26,265.07,558.67,236.82Zm-47.94-22-5-4.62h0Zm-5.47-4.12c-4.2,4.21-15.23,11.32-43.73,16.62l-3.29-21.38c8.44-1.4,25.65-2.65,46.74,4.63A1.46,1.46,0,0,1,505.26,210.7Z"/><path class="cls-7" d="M409.24,362.39c-7.28,0-14.14-5.67-15.66-13.17-6.1-30.45-27.95-179.61-28.17-181.12l-.77-5.29,3.91-3.65c13.72-12.79,105.1-17.11,157.12.54,26.62,9,41.69,23,44.78,41.43,2.27,13.57-.77,26.25-9,37.68l-2.75-2,2.75,2C541.58,266.28,496,279,474.16,283.64l8.06,52.95A16.46,16.46,0,0,1,471,354.72c-22,6.91-50.11,7.65-61.18,7.65Zm-37.36-197,.26,1.77c.22,1.5,22.05,150.49,28.11,180.76a9.68,9.68,0,0,0,9.46,7.7c10.9,0,38.18-.72,59.3-7.35a9.62,9.62,0,0,0,6.49-10.61l-9-59.35,3.18-.64c15.18-3,66.26-15.11,86.27-42.81a42,42,0,0,0,7.83-32.57c-2.65-15.79-16.19-27.94-40.25-36.11-53.66-18.21-140.66-11-150.3-2Zm86.82,66-4.33-28.16,3.32-.55c8.73-1.45,26.64-2.75,48.4,4.77l1.56.78.39-.43h0l2.77,2.23-.17.18,2.39,2.22-4.62,5-2.68-2.48c-6,4.9-18.28,11.12-43.59,15.82Zm3.43-22.47,2.22,14.48c18.09-3.64,28.15-7.92,33.7-11.34A93.13,93.13,0,0,0,462.13,208.83Z"/><path class="cls-7" d="M567.09,201.38c2.12,12.64-3.08,23.35-10.78,34-20.41,28.25-71.87,39.58-90,43.22l9,54.58c1,6.32-2.05,14-8.05,15.84-21.42,6.72-53.5,7.49-64.64,7.5a12.16,12.16,0,0,0,7.23,2.12c11,0,38.64-.74,60.17-7.49a13.06,13.06,0,0,0,8.83-14.38l-8.55-56.14c18.16-3.63,67.95-15.89,88.36-44.14,7.7-10.67,10.54-22.49,8.42-35.13"/><path class="cls-7" d="M395.47,298.84c3.31,21,6.23,38.79,8,47.6a7.06,7.06,0,0,0,6.95,5.74c11.1,0,36.51-.8,56.61-6.88a7.1,7.1,0,0,0,5-7.84L466.78,303a.78.78,0,0,0-.79-.66,418.37,418.37,0,0,1-69.66-4.37A.78.78,0,0,0,395.47,298.84Z"/><path class="cls-7" d="M384.47,160s-16.09-.28-13.71,13.32,16.83,110.83,16.83,110.83S370.58,167.64,384.47,160Z"/><path class="cls-6" d="M654.85,160.81c-42.7-9.24-68.06-9.56-69.12-9.57l-5.86-.05L579,157c-15.63,98.76-22.11,190.36-22.17,191.27l-.47,6.82,6.81.45c34.71,2.26,67.42,3.73,67.74,3.74l5.28.24,1.53-5.06c7.89-26,21.93-179.83,22.52-186.37l.54-6Z"/><path class="cls-7" d="M638.62,363l-7.91-.35c-.26,0-33.27-1.49-67.81-3.75l-10.22-.67.71-10.22c.06-.91,6.46-92.11,22.2-191.57l1.38-8.68,8.79.07c1.08,0,26.91.36,69.81,9.64l8.82,1.91-.81,9c-1.5,16.44-14.83,161.31-22.65,187.05ZM559.94,351.9l3.4.22c34.49,2.26,67.37,3.73,67.66,3.74l2.65.12.77-2.53c7.75-25.52,21.79-179.16,22.38-185.69l.28-3-3-.64c-42.23-9.14-67.39-9.47-68.43-9.48l-2.93,0-.46,2.9c-15.69,99.16-22.07,190.06-22.13,191Z"/><path class="cls-7" d="M660.4,163.54l.06-.59c-.6,6.54-21.3,183.14-27.06,191.81h0c-.32,0-42.12,3.5-76.83,1.23h0v.07l6.82.45c34.71,2.27,67.41,3.73,67.74,3.74l5.27.24,1.54-5.06c7.89-26,21.92-179.83,22.52-186.37l.54-6Z"/><path class="cls-7" d="M568.9,288.86c-3.3,32.47-5,54.78-5.28,59.1a.78.78,0,0,0,.74.82c32,2.08,61.8,3.46,66.24,3.66a.68.68,0,0,0,.73-.53c3.59-12.53,8.54-52.5,12.85-92a.77.77,0,0,0-1.13-.76,386.38,386.38,0,0,1-73.59,29.08A.77.77,0,0,0,568.9,288.86Z"/><path class="cls-7" d="M571.18,260.73s8.55-95.24,13-105.44c0,0,4.89-2.74,36.67,3.1,0,0-29.33-1.32-31.37.55S571.18,260.73,571.18,260.73Z"/><path class="cls-8" d="M690.91,73.87c-1.8,31.62-29.27,56-67,48.72-31.1-6-49.33-23.6-47.54-55.22a57.34,57.34,0,0,1,114.5,6.5Z"/><circle class="cls-6" cx="633.66" cy="70.62" r="50.36"/><path class="cls-7" d="M590.5,70c2.8-25.16,24.87-44.41,50.69-44.23a51.47,51.47,0,0,1,26.88,7.72,51.38,51.38,0,0,0-34.69-13.26c-25.63,0-47.43,19.22-50.23,44.18a49.58,49.58,0,0,0,23.42,47.72A49.29,49.29,0,0,1,590.5,70Z"/><polygon class="cls-9" points="74.28 184.13 66.66 167.52 49.16 171.38 65.94 164.56 61.91 146.26 69.1 163.44 87.03 159.01 70.15 166.65 74.28 184.13"/><path class="cls-10" d="M934.85,53h0c23.12.11,41.79,14,41.9-9.1S944.92,1.85,935.1,1.8h0c-9.82,0-42,18.54-42.06,41.65S911.74,52.84,934.85,53Z"/><path class="cls-7" d="M966.61,59c-3.58,0-7.8-.82-12.56-1.77-5.77-1.15-12.31-2.45-19.21-2.48v0c-6.91,0-13.45,1.2-19.23,2.3-8.79,1.66-15.74,3-20.19-.74-2.88-2.4-4.21-6.49-4.18-12.88.07-14.18,11.34-25.45,18-30.9C918.09,5.4,929.12,0,935,0h.1c10.69.05,43.56,19.85,43.44,43.87,0,6.38-1.4,10.46-4.3,12.83A11.65,11.65,0,0,1,966.61,59Zm-32.32-7.86h.57c7.24,0,14,1.38,19.89,2.56,7.85,1.56,14,2.79,17.22.2,2-1.62,2.95-4.91,3-10.06.1-21.58-30.34-40.2-39.86-40.24H935c-4.37,0-14.54,4.49-23.46,11.73-6.22,5.05-16.66,15.42-16.72,28.12,0,5.15.91,8.45,2.88,10.09,3.15,2.62,9.35,1.45,17.21,0A105.39,105.39,0,0,1,934.29,51.15Z"/><path class="cls-11" d="M1003.62,61.65h0c9.12,3.94,14.16,12.59,18.11,3.47s-5.5-22-9.38-23.66h0c-3.87-1.67-19.71.25-23.66,9.37S994.5,57.7,1003.62,61.65Z"/><path class="cls-7" d="M1017.49,71c-2.4,0-4.83-1.65-7.58-3.53a42.5,42.5,0,0,0-7-4.13l.71-1.65-.71,1.65A41.66,41.66,0,0,0,995.1,61c-3.86-.85-7.2-1.59-8.55-4.24-.89-1.73-.73-3.85.49-6.67,1.92-4.44,6.54-7.9,13-9.75,5-1.43,10.46-1.67,13-.56,5,2.15,14.6,16.11,10.31,26-1.22,2.83-2.66,4.39-4.53,4.93A4.87,4.87,0,0,1,1017.49,71Zm-9-28.24a28.38,28.38,0,0,0-7.42,1.11c-3.14.9-8.7,3.1-10.7,7.72-.73,1.69-.93,2.93-.59,3.6.58,1.14,3.27,1.73,6.12,2.35a45.72,45.72,0,0,1,8.46,2.49h0a45.87,45.87,0,0,1,7.61,4.46c2.4,1.65,4.67,3.2,5.9,2.85.72-.21,1.49-1.21,2.22-2.9,3.54-8.18-5.52-20-8.43-21.28A8.92,8.92,0,0,0,1008.47,42.72Z"/><path class="cls-12" d="M1046.08,95.11h0c5.54,5.86,6.53,13.92,12.38,8.38s2.94-18.14.59-20.63h0c-2.35-2.49-14.78-6.12-20.64-.59S1040.55,89.25,1046.08,95.11Z"/><path class="cls-7" d="M1055,107.15a4.93,4.93,0,0,1-.55,0c-2.56-.32-4.08-2.72-5.85-5.51a33.59,33.59,0,0,0-3.86-5.26l1.31-1.24-1.31,1.24a33,33,0,0,0-5-4.15c-2.68-1.92-5-3.58-5.16-6.15-.11-1.66.74-3.32,2.61-5.09,2.92-2.76,7.58-3.89,13.1-3.19,4.24.54,8.48,2.16,10.08,3.85,3.08,3.26,5.85,17-.66,23.18C1058,106.37,1056.51,107.14,1055,107.15Zm-8-26c-2.46,0-5.4.51-7.42,2.41-1.39,1.32-1.5,2-1.48,2.23.06.87,1.89,2.18,3.66,3.46a36.42,36.42,0,0,1,5.56,4.6,37.51,37.51,0,0,1,4.29,5.81c1.16,1.84,2.37,3.75,3.24,3.86.23,0,.92-.05,2.31-1.36,2.87-2.71,3-7.44,2.81-10-.28-3.92-1.54-7.25-2.3-8.06s-4-2.26-7.92-2.76A23.52,23.52,0,0,0,1047.07,81.17Z"/><path class="cls-7" d="M1132.17,274.23a26.9,26.9,0,0,0-17.68,4h0c-.67.44-10.77,7.17-22,7.22h0q-2.79-.69-5.66-1.13l-.43-92.88c-.37-80.65-66.32-145.73-147.3-145.36s-146.33,66.06-146,146.7L783,225a24.58,24.58,0,0,0,19.42,31.67,26.5,26.5,0,0,0,4.25.4l16.07-.07-6.93,20.12c-4.21,11.15-36.91,24.4-28.69,73.34,10.65,63.5,62.76,59.21,110.92,59l189.37-.87c27.35-4.48,48.67-27.49,51.87-55.21h0s1.59-17.48,13.15-38.89c.2-.35.39-.7.58-1.06l.24-.45a13.78,13.78,0,0,0,1.55-3.92,27.05,27.05,0,0,0-22.62-34.79Z"/><g class="cls-13"><path class="cls-14" d="M820,409.17s-21.43-25-25.22-34.07-15.86-42.88-4.31-64.16c0,0,13.06-19.63,79.54-20.61s85.45,9.52,102,33.78,15.29,74.08-19.22,84.45"/></g><path class="cls-15" d="M1112,279.07h0c5.06-2.27,10-1.48,7.7-6.54s-11.11-6-13.26-5h0c-2.15,1-7.31,8.21-5,13.26S1106.9,281.34,1112,279.07Z"/><path class="cls-7" d="M1104,284.87a4,4,0,0,1-1.17-.17,5.24,5.24,0,0,1-3.13-3.21c-1.21-2.68-.89-6.12.89-9.7,1.39-2.79,3.46-5.23,5.05-5.94,3-1.37,12.95-.06,15.65,5.94.82,1.83.94,3.32.37,4.55-.87,1.86-3,2.46-5.21,3.1a26.25,26.25,0,0,0-3.77,1.28h0a28.42,28.42,0,0,0-3.51,2C1107.41,283.81,1105.72,284.87,1104,284.87Zm4.84-15.35a4.13,4.13,0,0,0-1.4.18,11.29,11.29,0,0,0-3.3,4.26c-.75,1.5-1.85,4.36-.83,6.62.37.83.71,1.19.89,1.24.54.16,2.18-.86,3.38-1.61a31.41,31.41,0,0,1,4-2.21,29.59,29.59,0,0,1,4.26-1.46c1-.3,2.75-.79,2.92-1.16,0,0,.14-.36-.39-1.54C1116.89,270.64,1111.56,269.5,1108.85,269.52Z"/><path class="cls-16" d="M1136.78,275.14h0c3.88,1.17,6.33,4.43,7.49.55s-3.27-8.64-4.92-9.13h0c-1.65-.5-8,1-9.13,4.92S1132.89,274,1136.78,275.14Z"/><path class="cls-7" d="M1142.58,279.35a8,8,0,0,1-3.48-1.22,16.21,16.21,0,0,0-2.84-1.26h0a16.53,16.53,0,0,0-3.07-.51c-1.8-.18-3.49-.35-4.45-1.78a4.32,4.32,0,0,1-.25-3.62c.66-2.2,2.58-4.07,5.42-5.25,1.85-.77,4.42-1.34,6-.88s3.37,2.35,4.49,4c1.72,2.55,2.3,5.16,1.64,7.36a4.35,4.35,0,0,1-2.21,2.89A3.32,3.32,0,0,1,1142.58,279.35Zm-5.29-5.93a18.88,18.88,0,0,1,3.49,1.52,13.47,13.47,0,0,0,1.57.75,3.37,3.37,0,0,0,.19-.52c.82-2.7-2.7-6.5-3.72-6.89-1-.22-6.06,1-6.88,3.71a4.78,4.78,0,0,0-.12.54,13.63,13.63,0,0,0,1.73.24,19.49,19.49,0,0,1,3.74.65Z"/><path class="cls-17" d="M939.09,47.9c-79.26.37-142.66,65-143.26,143.69a10.73,10.73,0,0,1-.6,3.5l-10.38,29.42c-4.65,14.65,2.3,27.85,21,30.72a4.49,4.49,0,0,0,.73,0l18.61-.08-7.75,22.51C816.25,281,813.2,284,809.33,288c-10.52,10.65-26.41,26.74-20.47,62.17,9.8,58.4,56.13,58,100.94,57.54l8.2-.06,189.23-.87c26.44-4.4,47.09-26.43,50.23-53.61l.22-1.92h0c.75-5.19,3.61-20,13.11-37.63.21-.36.39-.68.56-1l.28-.51a12.4,12.4,0,0,0,1.36-3.41A25.29,25.29,0,0,0,1132,276h0a25,25,0,0,0-16.51,3.76l-.48.27c-2.73,1.73-12.17,7.18-22.49,7.23l-.45-.06c-1.75-.44-3.6-.81-5.5-1.1l1,.17c-2.25-.16-3.54-2.48-3.53-4.18l.53-90.65C1084.21,111.94,1019,47.54,939.09,47.9ZM881.52,411.34c-43.6.21-86.52-2.85-96.21-60.61-6.25-37.25,11.09-54.81,21.45-65.31,3.43-3.46,6.39-6.46,7.34-9l6.08-17.66-13.53.06a45.12,45.12,0,0,1-9.33-1.31,23.61,23.61,0,0,1-17.14-30.28l10.29-31.83a18.16,18.16,0,0,0,.86-5.37C792.44,109.8,858.15,44.67,939.07,44.3c81.85-.38,148.74,65.63,149.11,147.15l.42,90.25a1.33,1.33,0,0,0,1.09,1.31c1,.2,2,.42,3,.66,9.91-.13,19-5.76,20.74-6.9l.51-.3a28.61,28.61,0,0,1,18.45-4h0a28.87,28.87,0,0,1,24.13,37.11,15.17,15.17,0,0,1-1.7,4.27l-.25.45c-.16.32-.37.7-.58,1.07-11.24,20.81-12.91,38-12.93,38.16l-.18,2h-.08c-4.06,27.94-25.66,50.37-53.13,54.87l-.28,0L898,411.22l-8.18.06C887.07,411.31,884.29,411.33,881.52,411.34Z"/><path class="cls-18" d="M871.27,255.57c-2,0-5.29-1.13-7.14.21-1.08-.8-2.74-.72-3.78-.71-1.38,0-3.85-.1-4.61,1.87-.77-2-3.24-1.84-4.62-1.82s-4.07-.13-4.7,2.12c-.65-2.24-3.28-2.1-4.72-2.08-1.07,0-2.81-.07-3.88.83-1.73-1.81-5.43,0-7.6,0-2.9,0-8.54-3.11-8.52,3.27s5.71,17.08,8.61,17.76c2.4-.58,6.62-8,8-14.22,2.45,3.2,7.17,2.17,8.13-3.07,1.23,6.36,7.93,6.44,9.33.33,1.08,4.56,5.1,5.63,7.55,3.22,1.5,6,5.7,13,8.06,13.55,2.89-.69,8.47-11.22,8.44-17.46S874.16,255.53,871.27,255.57Z"/><path class="cls-12" d="M830.32,277.94l-.21,0c-3.62-.85-9.28-12.16-9.31-18.64,0-1.95.47-3.3,1.47-4.11,1.54-1.26,3.79-.8,5.77-.39a12.19,12.19,0,0,0,2.18.33,11.51,11.51,0,0,0,2.16-.35c1.78-.38,4-.86,5.49.14a7.63,7.63,0,0,1,3.67-.62h.33c1.13,0,3.16-.05,4.45,1.13l.09-.51.1.51c1.27-1.19,3.31-1.18,4.43-1.17h.18c1.31,0,3.34-.05,4.61,1.14,1.26-1.2,3.26-1.19,4.45-1.18h.34a7.73,7.73,0,0,1,3.61.56c1.55-.77,3.5-.5,5.26-.25a14.42,14.42,0,0,0,1.87.19,15,15,0,0,0,1.88-.21c2-.3,4.43-.66,6.05.72a5.21,5.21,0,0,1,1.52,4.18c0,6.34-5.52,17.49-9.14,18.35l-.2,0-.2,0c-2.74-.62-6.66-7.3-8.37-12.92a4.84,4.84,0,0,1-3.74.46,5.6,5.6,0,0,1-3.29-2.71,5.31,5.31,0,0,1-4.72,2.93,5.38,5.38,0,0,1-4.61-3,5.6,5.6,0,0,1-3.59,2.94,4.92,4.92,0,0,1-4.06-.86c-1.65,5.83-5.47,12.69-8.27,13.36Zm33.48-16.41.38,1.53c1.53,6.09,5.42,12,7.19,12.82,2.42-1.05,7.57-10.67,7.54-16.51a3.69,3.69,0,0,0-.89-2.82c-1-.85-2.92-.56-4.61-.31a16,16,0,0,1-2.13.24h0a17.72,17.72,0,0,1-2.13-.22c-1.61-.22-3.45-.48-4.47.25l-.53.39-.53-.39a5.43,5.43,0,0,0-3.05-.54h-.38c-1.62,0-3.12.08-3.58,1.29l-.35.91.39,1.68a4.62,4.62,0,0,0,2.93,3.66,3.12,3.12,0,0,0,3.12-.88Zm-38.89-5.4a2.34,2.34,0,0,0-1.5.42,3.41,3.41,0,0,0-.8,2.71c0,6,5.25,15.75,7.69,16.81,1.83-.85,5.75-7.29,7.12-13.46l.42-1.89,1.18,1.54a3.29,3.29,0,0,0,3.41,1.37c1.55-.37,2.72-1.89,3.12-4.06l.23-1.29-.23-.79c-.39-1.37-1.94-1.46-3.65-1.43h-.37c-.94,0-2.37,0-3.13.62l-.65.55-.58-.62c-.85-.88-2.74-.47-4.41-.11a13.31,13.31,0,0,1-2.53.4,14,14,0,0,1-2.56-.38A14.66,14.66,0,0,0,824.91,256.13Zm22.16,2.14.25,1.29c.47,2.47,1.95,4.08,3.76,4.11s3.26-1.47,3.8-3.81l.38-1.68-.36-.91c-.47-1.21-2-1.28-3.59-1.26h-.38c-1.69,0-3.26.09-3.64,1.46Z"/><path class="cls-17" d="M931.85,258.27c-3.86,0-6.7,0-7.18,0h-.1l-116.12.55a1.8,1.8,0,0,1-1.81-1.8v-.11a1.81,1.81,0,0,1,1.68-1.81l24.22-1.64c.57,0,1.15-.06,1.72-.06l90.47,0h.09c1.18.08,24.42,2.45,34.34-6.62a12,12,0,0,0,4.23-7.83,1.82,1.82,0,0,1,1.78-1.64h0a1.83,1.83,0,0,1,1.82,2,16.54,16.54,0,0,1-5.47,10.92C953.88,257.24,940.24,258.23,931.85,258.27Z"/><path class="cls-19" d="M806.07,363.19c-20.31.09-19,18.42-23.7,37.27A8.72,8.72,0,0,0,791,411.15l67.25-.31a8.71,8.71,0,0,0,8.48-10.77C861.83,381.26,826.39,363.09,806.07,363.19Z"/><path class="cls-20" d="M940.26,364.25c-20.31.1-22,18.44-26.66,37.29a8.71,8.71,0,0,0,8.59,10.69l67.24-.31a8.71,8.71,0,0,0,8.49-10.76C993.05,382.35,960.58,364.16,940.26,364.25Z"/><rect class="cls-14" x="809.76" y="159.17" width="21.18" height="81.13" rx="0.38" ry="0.38" transform="translate(-0.91 3.77) rotate(-0.26)"/><rect class="cls-12" x="858.35" y="158.95" width="21.18" height="81.13" rx="0.38" ry="0.38" transform="translate(-0.91 4) rotate(-0.26)"/><rect class="cls-7" x="813.16" y="176.33" width="14.32" height="46.14" rx="5.29" ry="5.29" transform="translate(-0.91 3.77) rotate(-0.26)"/><path class="cls-12" d="M820.43,223.37a8.07,8.07,0,0,1-8.1-8l-.14-31.82a8.06,8.06,0,0,1,16.12-.08l.15,31.82A8.07,8.07,0,0,1,820.43,223.37Zm-.21-46.14a6.27,6.27,0,0,0-6.23,6.29l.15,31.82a6.26,6.26,0,1,0,12.51-.06l-.14-31.82A6.28,6.28,0,0,0,820.22,177.23Z"/><path class="cls-7" d="M804.14,371.08c-12.95.06-12.11,13.81-15.09,27.95-.86,4.1,1.89,8,5.48,8l42.87-.2c3.59,0,6.31-4,5.4-8.07C839.69,384.67,817.09,371,804.14,371.08Z"/><path class="cls-7" d="M936.2,370.48c-13,.06-12.11,13.81-15.09,27.95-.86,4.1,1.89,8,5.48,8l42.87-.2c3.59,0,6.3-4,5.4-8.07C971.75,384.07,949.15,370.42,936.2,370.48Z"/><rect class="cls-7" x="861.54" y="176.11" width="14.32" height="46.14" rx="5.29" ry="5.29" transform="translate(-0.91 4) rotate(-0.26)"/><path class="cls-12" d="M868.81,223.15a8.07,8.07,0,0,1-8.1-8l-.15-31.81a8.07,8.07,0,0,1,16.13-.08l.14,31.82A8.07,8.07,0,0,1,868.81,223.15ZM868.6,177a6.28,6.28,0,0,0-6.24,6.29l.15,31.82a6.26,6.26,0,0,0,12.52-.06l-.15-31.82A6.25,6.25,0,0,0,868.6,177Z"/><path class="cls-1" d="M917.36,322.41l-3.38-.55a9.19,9.19,0,1,0-11.65-1.2l-2.42-.12h-.69a.75.75,0,0,0-.73.65l-.19,1.46h-.06l0,.35c-.51-.21-1-.4-1.6-.58-6.53-2.05-20.58-2.2-24.59,1.16a6,6,0,0,0-1.32.28l-7.37,2.5a5.81,5.81,0,0,0-3.37,3l-.06,0a4.67,4.67,0,0,0,.15-.84c0-.23,0-.46,0-.7l.13-.45a3.89,3.89,0,0,0,.17-1,5.58,5.58,0,0,0-.67-3.41,5.7,5.7,0,0,0-3.49-2.7l-7.82-2.07a5.62,5.62,0,0,0-6.87,3.82l-.91,3a.76.76,0,0,1-1,.49l-4.2-1.42a5.65,5.65,0,0,0-7.11,3.36,59.5,59.5,0,0,0-2.21,8.1,5.78,5.78,0,0,0-.1,1c-.12.53-.2.94-.24,1.13a5.64,5.64,0,0,0,2.92,6.13,35.85,35.85,0,0,0,5.61,2l0,.07a39.61,39.61,0,0,0-1.44,6.35,14.73,14.73,0,0,0-.37,2.69c0,.26,0,.5,0,.76a6.55,6.55,0,0,0,.1.74,3.92,3.92,0,0,0,.17.61l0,.12a4.94,4.94,0,0,0,.24.54l.07.14a5.91,5.91,0,0,0,.33.49l.1.14a5.42,5.42,0,0,0,.4.42l.13.13c.15.13.31.26.46.37l.15.11a7,7,0,0,0,.63.39l0,0a9.76,9.76,0,0,0,4.06.9l2.61.13,1.81.07.36,0,1.48.06a4.38,4.38,0,0,0,.63,0,5.64,5.64,0,0,0,4.71-2.73.72.72,0,0,1,1.06-.22,13,13,0,0,0,8.18,2.63l6.53-.15a14.45,14.45,0,0,0,8.13-2.84.71.71,0,0,1,.92.08,6.21,6.21,0,0,0,4.51,1.84h.13a33.5,33.5,0,0,0,9.22-1.41,7.35,7.35,0,0,0,2.58-1.57,6.2,6.2,0,0,0,2.23-4.49,5.61,5.61,0,0,0-.09-1.17l-.23-1.47c0-.14,0-.28,0-.42l-.15-.86a.74.74,0,0,1,.46-.83h0a.75.75,0,0,1,1,.76c-.2,2.82-.28,4.63-.3,4.89l0,.89.08,3.84a.73.73,0,0,0,.71.73l4.42.19c4.75.2,9,.29,9.06.29l3.61.08a.75.75,0,0,0,.74-.54l1-3.48a25.85,25.85,0,0,0,.55-3c1-4.87,2-20.14,2.35-24.71l.28-4.1A.73.73,0,0,0,917.36,322.41Z"/><path class="cls-2" d="M912.75,325.06a52.83,52.83,0,0,0-9.82-1.11l-3.48.05-.43,3.16a16.67,16.67,0,0,0-3.15-1.33c-6.69-2.11-20.45-1.91-23.48,1.05l-.15.14a4.48,4.48,0,0,0-1.44.24l-7.38,2.5a4.38,4.38,0,0,0-3,3.75l-.48-.34a4.36,4.36,0,0,0-2.35-.8c.5-1.69.85-2.89,1-3.31h0a3.2,3.2,0,0,0,.13-.74,4.29,4.29,0,0,0-.51-2.59,4.37,4.37,0,0,0-2.66-2.06l-7.82-2.07a4.31,4.31,0,0,0-5.24,2.91l-1.54,5-6.24-2.12a4.31,4.31,0,0,0-5.42,2.56,57.58,57.58,0,0,0-2.15,7.89,4.28,4.28,0,0,0,2.22,4.66,46.48,46.48,0,0,0,6.89,2.33c-.31,1.06-.65,2.23-1,3.38-1.66,5.95-2.41,8.67.75,10.37a8.71,8.71,0,0,0,3.5.74l2.59.13,1.8.07c.86,0,1.57.06,1.91.09h.48a4.29,4.29,0,0,0,4-2.84c.08-.24.24-.7.6-1.84a11.68,11.68,0,0,0,9.41,4.36l6.53-.15a13.3,13.3,0,0,0,9-4,4.86,4.86,0,0,0,4.58,3.05h.12a32.13,32.13,0,0,0,8.82-1.34c2-.67,3.91-2.78,3.89-4.81a4,4,0,0,0-.07-.92l-.73-4.5a22.4,22.4,0,0,0,4.78-2.06c-.4,5.06-.56,8.4-.56,8.46l-.05.9.07,3.18,3.85.16c4.69.2,9,.29,9,.29l3.15.07.84-3c1-3.52,2.18-20.29,2.52-25.35l.24-3.57Z"/><path class="cls-3" d="M889.28,356.29a32.08,32.08,0,0,1-8.82,1.34h-.12a4.86,4.86,0,0,1-4.58-3.05,13.3,13.3,0,0,1-9,4l-6.53.15a11.66,11.66,0,0,1-9.4-4.36c-.36,1.14-.52,1.6-.61,1.84a4.28,4.28,0,0,1-4,2.84h-.47c-.34,0-1.05-.06-1.92-.09l-1.79-.07-2.6-.13A8.65,8.65,0,0,1,836,358a3.61,3.61,0,0,1-2.16-3.14,3.71,3.71,0,0,0,2.17,3.77,8.71,8.71,0,0,0,3.5.74l2.59.13,1.8.07c.86,0,1.57.06,1.91.09h.48a4.29,4.29,0,0,0,4-2.84c.08-.24.24-.7.6-1.84a11.68,11.68,0,0,0,9.41,4.36l6.53-.15a13.3,13.3,0,0,0,9-4,4.86,4.86,0,0,0,4.58,3.05h.12a32.13,32.13,0,0,0,8.82-1.34c2-.67,3.91-2.78,3.89-4.81a3.25,3.25,0,0,0,0-.44A5.81,5.81,0,0,1,889.28,356.29Z"/><path class="cls-3" d="M913.49,354l-.85,3L909.5,357s-4.35-.09-9-.29l-3.84-.16v.63l3.85.16c4.69.2,9,.29,9,.29l3.15.07.84-3"/><path class="cls-4" d="M913.09,323a52.83,52.83,0,0,0-9.82-1.11l-3.48.05-.43,3.17a16,16,0,0,0-3.15-1.34c-6.69-2.1-20.45-1.91-23.48,1l-.15.15a4.21,4.21,0,0,0-1.44.23l-7.38,2.5a4.39,4.39,0,0,0-3,3.75l-.48-.34a4.36,4.36,0,0,0-2.35-.8c.49-1.69.85-2.89,1-3.3h0a3.13,3.13,0,0,0,.13-.73,4.26,4.26,0,0,0-3.17-4.65l-7.82-2.08a4.32,4.32,0,0,0-5.24,2.92l-1.54,5L835,325.31a4.31,4.31,0,0,0-5.42,2.56,58,58,0,0,0-2.15,7.89,4.27,4.27,0,0,0,2.22,4.66,46.48,46.48,0,0,0,6.89,2.33c-.31,1.07-.65,2.24-1,3.38-1.66,6-2.41,8.67.75,10.37a8.66,8.66,0,0,0,3.5.74l2.59.14,1.8.07c.86,0,1.57.05,1.91.08a3.81,3.81,0,0,0,.48,0,4.29,4.29,0,0,0,4-2.83c.08-.24.24-.71.6-1.85a11.65,11.65,0,0,0,9.41,4.36l6.53-.15a13.34,13.34,0,0,0,9-4,4.87,4.87,0,0,0,4.58,3h.12a32.13,32.13,0,0,0,8.82-1.34,5,5,0,0,0,3.21-5.5l-.79-4.51a29.61,29.61,0,0,0,5.45-2.28c-.4,5.06-.56,8.41-.57,8.47l0,.89.07,3.18,3.85.16c4.69.2,9,.3,9,.3l3.15.06.84-3c1-3.51,2.18-20.29,2.52-25.35l.24-3.57Z"/><path class="cls-5" d="M889.56,354.37a32.13,32.13,0,0,1-8.82,1.34h-.12a4.87,4.87,0,0,1-4.58-3,13.29,13.29,0,0,1-9,4l-6.53.15a11.62,11.62,0,0,1-9.41-4.36c-.36,1.15-.52,1.61-.6,1.85a4.29,4.29,0,0,1-3.95,2.83,3.81,3.81,0,0,1-.48,0c-.34,0-1.05,0-1.91-.08l-1.8-.07-2.6-.14a8.33,8.33,0,0,1-3.49-.74,3.63,3.63,0,0,1-2.16-3.16,3.69,3.69,0,0,0,2.18,3.76,8.29,8.29,0,0,0,3.49.74l2.6.14,1.79.07c.86,0,1.58.05,1.92.08a3.65,3.65,0,0,0,.47,0,4.27,4.27,0,0,0,3.95-2.83c.09-.24.25-.7.6-1.85a11.63,11.63,0,0,0,9.41,4.36l6.53-.15a13.29,13.29,0,0,0,9-4,4.87,4.87,0,0,0,4.58,3h.12a32.08,32.08,0,0,0,8.82-1.34,4.82,4.82,0,0,0,3.29-4.57c0-.13,0-.25,0-.38A4.83,4.83,0,0,1,889.56,354.37Z"/><path class="cls-5" d="M913.76,352.12l-.84,3-3.15-.07s-4.35-.1-9-.29l-3.85-.17v.6l3.85.17c4.69.19,9,.29,9,.29l3.14.07.85-3"/><path class="cls-6" d="M855.33,325.18a1.19,1.19,0,0,0-.72-.56l-7.81-2.07a1.17,1.17,0,0,0-1.43.79l-2.5,8.14c-2.3-.81-7.6-2.6-9.3-3.17a1.18,1.18,0,0,0-1.47.69,54,54,0,0,0-2,7.39,1.16,1.16,0,0,0,.6,1.26c1,.53,5.51,1.87,9.36,3-.42,1.33-1.19,3.91-1.87,6.34-1.73,6.25-1.47,6.39-.79,6.76s1.93.41,6.45.57c1,0,1.77.06,2.12.09a.65.65,0,0,0,.14,0,1.13,1.13,0,0,0,1.06-.76c1-2.64,7.52-25,8.27-27.56A1.14,1.14,0,0,0,855.33,325.18Z"/><path class="cls-7" d="M846.12,354.85h-.18c-.35,0-1.12-.06-2.05-.09-4.77-.17-6.08-.29-6.7-.63-1.07-.57-1.13-1.16.57-7.27.61-2.2,1.29-4.5,1.74-5.92a93.58,93.58,0,0,1-9-2.89,1.61,1.61,0,0,1-.83-1.75,54.38,54.38,0,0,1,2-7.46,1.64,1.64,0,0,1,2-1c2.4.81,6.59,2.23,8.86,3l2.36-7.69a1.62,1.62,0,0,1,2-1.1l7.82,2.08a1.6,1.6,0,0,1,1,.77h0a1.6,1.6,0,0,1,.15,1.25c-.75,2.54-7.31,25-8.27,27.58A1.6,1.6,0,0,1,846.12,354.85ZM833.18,328.7a.74.74,0,0,0-.66.46,55.17,55.17,0,0,0-2,7.31.72.72,0,0,0,.37.78c1.1.58,7,2.3,9.28,2.95l.44.13-.14.44c-.42,1.34-1.19,3.89-1.87,6.33-1.63,5.9-1.38,6-1,6.24s2.49.38,6.25.52c1,0,1.79.06,2.15.09a.75.75,0,0,0,.73-.46c1-2.61,7.51-25,8.25-27.54a.67.67,0,0,0-.06-.55.72.72,0,0,0-.44-.34L846.68,323a.72.72,0,0,0-.87.48l-2.65,8.6-.44-.15c-2.11-.75-6.73-2.31-9.29-3.17A.73.73,0,0,0,833.18,328.7Z"/><path class="cls-7" d="M841.17,340.31a.09.09,0,0,0-.07.06c-.69,2-3.74,12.32-3.27,12.57.7.38,6.78.45,8.15.56a.38.38,0,0,0,.38-.25c.51-1.45,2.31-7.43,4.1-13.47a.1.1,0,0,0-.1-.13A39.06,39.06,0,0,0,841.17,340.31Z"/><path class="cls-7" d="M832.5,329s-2.06,6.72-1.93,7.69c.12.28-.16.42,2.39,1.35s7.2,2.18,7.2,2.18-7.52-2.79-8.33-3.84S832.5,329,832.5,329Z"/><path class="cls-7" d="M847.31,351.67a5.88,5.88,0,0,1-.71,1.55h0c-.47.66-1.4.67-2.26.69l-5.55.13c1,.1,2.52.18,5.07.27,1,0,1.76.06,2.12.09a.57.57,0,0,0,.13,0,1.15,1.15,0,0,0,1.07-.76c1-2.64,7.56-25.29,8.31-27.83C854.79,328.19,848.92,347,847.31,351.67Z"/><path class="cls-6" d="M873.68,330.69c-.17-.71-.3-1.23-.33-1.5a1.3,1.3,0,0,0-.58-.92,1.25,1.25,0,0,0-1.08-.12l-7.38,2.49a1.27,1.27,0,0,0-.85,1.38c.07.47.33,1.46.68,2.83.65,2.5,1.86,7.15,1.64,8.38-.13.69-.84,2.11-1.93,2.26-1.35.19-2.27,0-2.57-.41-.54-.8.08-2.75,1.83-5.78l.32-.56a1.12,1.12,0,0,0-.37-1.49L858,333.63h0a1.25,1.25,0,0,0-1.83.41c-.16.28-.4.66-.69,1.12a32.39,32.39,0,0,0-3.9,7.92,8.63,8.63,0,0,0,8.49,11l6.53-.15c4.66-.1,9-3.95,9.41-8.22a14.76,14.76,0,0,0-.12-3.36A108.26,108.26,0,0,0,873.68,330.69Z"/><path class="cls-7" d="M873.69,330.74a96.33,96.33,0,0,1,1.8,10.68,25.23,25.23,0,0,1,.15,4.31c-.36,4.27-5.66,8.13-10.39,8.23l1.35,0c4.66-.1,9-3.95,9.41-8.22a14.76,14.76,0,0,0-.12-3.36,108.26,108.26,0,0,0-2.21-11.66"/><path class="cls-7" d="M866.68,342.6a3.29,3.29,0,0,1,0,.79c-.18,1-1.12,2.77-2.69,3-4.81.67-4.07-2.61-2.87-5.22A.1.1,0,0,0,861,341a66.59,66.59,0,0,0-7.14-1.13.11.11,0,0,0-.1.06,20.61,20.61,0,0,0-1.27,3.14,7.82,7.82,0,0,0,7.68,10.09l6.38-.15c4-.09,8.2-3.44,8.53-7.39,0-.31,0-.63,0-.95A54,54,0,0,1,866.68,342.6Z"/><path class="cls-7" d="M857.93,334.1a1,1,0,0,0-1.44,0,40,40,0,0,0-2.34,4.93S856.32,334.22,857.93,334.1Z"/><path class="cls-6" d="M899.54,336.4a6,6,0,0,0,1-4.67c-.43-2.25-2.36-3.94-5.74-5-7.07-2.21-18.83-1.16-20.33.3l-.34.33.08.47c.13.81,3.38,19.9,4.27,23.84a1.72,1.72,0,0,0,1.74,1.34,29.37,29.37,0,0,0,7.94-1.17,1.73,1.73,0,0,0,1.12-1.93l-1.3-7.4C890.38,342,896.93,340.2,899.54,336.4Zm-6.41-2.76-.67-.6h0Zm-.73-.53c-.54.57-2,1.54-5.73,2.33l-.5-2.81a12.6,12.6,0,0,1,6.19.47Z"/><path class="cls-7" d="M880.16,353.47a2.19,2.19,0,0,1-2.11-1.7c-.9-4-4.24-23.67-4.28-23.87l-.12-.69.51-.5c1.78-1.73,13.85-2.58,20.78-.41,3.55,1.12,5.59,2.92,6,5.35a6.43,6.43,0,0,1-1.08,5l-.37-.26.37.26c-2.54,3.69-8.53,5.51-11.4,6.19l1.22,7a2.16,2.16,0,0,1-1.42,2.43,29.89,29.89,0,0,1-8.07,1.2Zm-5.54-26,0,.23c0,.2,3.37,19.84,4.27,23.82a1.26,1.26,0,0,0,1.27,1,29,29,0,0,0,7.82-1.15,1.27,1.27,0,0,0,.83-1.42l-1.38-7.82.42-.1c2-.45,8.72-2.2,11.28-5.92a5.56,5.56,0,0,0,.94-4.33c-.4-2.08-2.23-3.65-5.44-4.66-7.15-2.24-18.63-1-19.88.2ZM886.3,336l-.66-3.71.44-.09a13.35,13.35,0,0,1,6.42.49l.21.1,0-.06h0l.37.28,0,0,.32.28-.59.68-.36-.32c-.78.66-2.39,1.52-5.72,2.22Zm.39-3,.34,1.9a13.67,13.67,0,0,0,4.42-1.6A12.3,12.3,0,0,0,886.69,333Z"/><path class="cls-7" d="M900.55,331.69a5.86,5.86,0,0,1-1.33,4.53c-2.61,3.8-9.38,5.46-11.77,6l1.36,7.19a1.89,1.89,0,0,1-1,2.12,33.25,33.25,0,0,1-8.53,1.19,1.64,1.64,0,0,0,1,.26,29.37,29.37,0,0,0,7.94-1.17,1.73,1.73,0,0,0,1.12-1.93l-1.3-7.4c2.39-.54,8.94-2.31,11.55-6.11a6,6,0,0,0,1-4.67"/><path class="cls-7" d="M878.15,345.1c.5,2.77.94,5.11,1.19,6.27a.94.94,0,0,0,.94.74,29.13,29.13,0,0,0,7.47-1.08,1,1,0,0,0,.64-1l-.8-4.55a.1.1,0,0,0-.11-.08,56.37,56.37,0,0,1-9.22-.37A.1.1,0,0,0,878.15,345.1Z"/><path class="cls-7" d="M876.27,326.77s-2.13,0-1.77,1.81,2.56,14.6,2.56,14.6S874.46,327.83,876.27,326.77Z"/><path class="cls-6" d="M912,326.06a50.34,50.34,0,0,0-9.17-1.06h-.77l-.11.77c-1.76,13.11-2.34,25.25-2.35,25.37l0,.9.9,0c4.6.19,8.93.29,9,.29h.7l.19-.67c1-3.46,2.35-23.85,2.41-24.72l0-.79Z"/><path class="cls-7" d="M910.5,352.85l-1,0s-4.4-.1-9-.29l-1.35-.06.06-1.35c0-.12.58-12.21,2.36-25.41l.15-1.15,1.16,0a50.75,50.75,0,0,1,9.27,1.07l1.17.22-.08,1.19c-.15,2.18-1.47,21.38-2.43,24.81Zm-10.44-1.23.45,0c4.57.19,8.92.29,9,.29h.35l.1-.34c.94-3.4,2.33-23.76,2.39-24.63l0-.4-.39-.07a49.92,49.92,0,0,0-9.08-1.05h-.39l-.05.38c-1.78,13.17-2.34,25.21-2.35,25.33Z"/><path class="cls-7" d="M912.77,326.4v-.08c-.06.87-2.26,24.29-3,25.45h0a82.82,82.82,0,0,1-10.15.4h0l.9,0c4.6.19,8.93.29,9,.29h.7l.19-.67c1-3.46,2.35-23.85,2.41-24.72l.05-.79Z"/><path class="cls-7" d="M901.05,343.26c-.33,4.3-.49,7.26-.52,7.83a.1.1,0,0,0,.11.1c4.24.18,8.18.27,8.77.29a.09.09,0,0,0,.09-.08,119,119,0,0,0,1.42-12.21.11.11,0,0,0-.15-.1,51,51,0,0,1-9.64,4.07A.12.12,0,0,0,901.05,343.26Z"/><path class="cls-7" d="M901.27,339.53s.84-12.62,1.4-14c0,0,.64-.37,4.86.3,0,0-3.88-.08-4.15.17S901.27,339.53,901.27,339.53Z"/><path class="cls-8" d="M916.54,314.45c-.15,4.19-3.71,7.49-8.71,6.65-4.13-.7-6.6-3-6.46-7.16a7.59,7.59,0,0,1,15.17.51Z"/><circle class="cls-6" cx="908.95" cy="314.19" r="6.66"/><path class="cls-7" d="M903.24,314.25a6.7,6.7,0,0,1,6.57-6,6.84,6.84,0,0,1,3.58.94,6.79,6.79,0,0,0-4.63-1.65,6.69,6.69,0,0,0-6.51,6,6.56,6.56,0,0,0,3.25,6.24A6.53,6.53,0,0,1,903.24,314.25Z"/><polygon class="cls-9" points="835.32 330.91 834.26 328.74 831.96 329.3 834.16 328.35 833.57 325.94 834.57 328.19 836.93 327.55 834.72 328.61 835.32 330.91"/></g></g></svg>