<svg xmlns="http://www.w3.org/2000/svg" class="MuiSvgIcon-root czyIcon" focusable="false" viewBox="0 0 24 24" aria-hidden="true" style="margin-top:10px"><path xmlns="http://www.w3.org/2000/svg" fill-rule="evenodd" d="M17.688 6.006l.27-2.326a6.82 6.82 0 0 1 1.26 3.898l-1.53-1.572zm.668 4.959l-2.768.52-1.39-2.139.74-2.274&#10;    1.756-.395.457-.102 1.996 2.05a6.803 6.803 0 0 1-.791 2.34zm-3.777 3.162l1.073-1.86 2.1-.394a6.884 6.884 0&#10;    0 1-3.173 2.254zm-2.217.368c-.396 0-.783-.033-1.16-.098l-1.424-2.468 1.388-2.136h2.391l1.388 2.136-1.424&#10;    2.468a6.874 6.874 0 0 1-1.16.098zm-5.398-2.633l2.107.405 1.074 1.86a6.885 6.885 0 0&#10;    1-3.181-2.265zM5.57 8.591l2-2.017 2.215.498.493 1.515.246.759-1.389 2.138-2.777-.533a6.807 6.807 0&#10;    0 1-.788-2.36zm1.105-4.782l.352 2.203-1.522 1.535a6.817 6.817 0 0 1 1.17-3.738zM9.61 1.358l2.353&#10;    1.44v2.096L10.58 5.9l-.578.42-2.213-.497-.455-2.843a6.887 6.887 0 0 1 2.277-1.622zm2.75-.577c.546&#10;    0 1.077.065 1.587.186l-1.603 1.148-1.786-1.093a6.84 6.84 0 0 1 1.803-.24zm1.8 6.108l-.69&#10;    2.123h-2.233l-.69-2.124 1.806-1.312 1.807 1.313zm3.107-4.036l-.346 2.972-.84.189-1.36.305-1.963-1.425V2.78l2.12-1.52c.907.36&#10;    1.719.906 2.389 1.593zm.727-.367a7.61 7.61 0 0 1 1.953 6.04l-.001.01a7.585 7.585 0 0 1-.98 2.933.389.389 0 0 1-.048.083 7.641&#10;    7.641 0 0 1-7.861 3.613l-3.093 3.093a.39.39 0 0 1-.553 0 .391.391 0 0 1 0-.552l2.752-2.752a7.674 7.674 0 0 1-4.772-4.19L1.535&#10;    14.62a.39.39 0 0 1-.552 0 .39.39 0 0 1 0-.552l4.103-4.104a7.58 7.58 0 0 1-.314-1.467l-.001-.01a7.607 7.607&#10;    0 0 1 1.825-5.853.401.401 0 0 1 .066-.075A7.672 7.672 0 0 1 9.528.545 7.599 7.599 0 0 1 12.362 0a7.604 7.604&#10;    0 0 1 5.563 2.41c.027.022.05.048.07.076zM5.38 14.068a.391.391 0 0 1 .552.552L.667 19.886a.39.39 0 0 1-.553&#10;    0 .39.39 0 0 1 0-.553l5.266-5.265zm1.11 4.722a.393.393 0 0 1 .39.39.393.393 0 0 1-.39.391.392.392 0 0 1 0-.781z"/></svg>