<svg xmlns="http://www.w3.org/2000/svg" class="MuiSvgIcon-root czyIcon" focusable="false" viewBox="0 0 24 24" aria-hidden="true" style="margin-top:11px"><path xmlns="http://www.w3.org/2000/svg" fill-rule="evenodd" d="M8.708 1.117c-4.185 0-7.59 3.405-7.59 7.59 0 4.186 3.405 7.59 7.59 7.59a7.513 7.513 0 0 0&#10;    6.054-3.01L7.669 9.191a.559.559 0 0 1 0-.968l7.093-4.095a7.512 7.512 0 0 0-6.054-3.01zm7.33&#10;    2.89a.562.562 0 0 1-.19.785L9.065 8.708l6.782 3.915a.56.56 0 0 1 .19.786 8.68 8.68 0 0&#10;    1-7.33 4.006C3.908 17.415 0 13.51 0 8.708 0 3.906 3.906 0 8.708 0a8.68 8.68 0 0 1 7.33&#10;    4.006zm-9.971.76a.57.57 0 1 0 1.138 0 .57.57 0 0 0-1.138 0zm.569 1.686c-.93 0-1.687-.756-1.687-1.686&#10;    0-.93.757-1.686 1.687-1.686s1.686.757 1.686 1.686c0 .93-.757 1.686-1.686 1.686zm8.263 2.255a.57.57&#10;    0 1 0-1.14 0 .57.57 0 0 0 1.14 0zM14.33 7.02a1.688 1.688 0 0 1 0 3.373c-.93&#10;    0-1.686-.756-1.686-1.686 0-.93.756-1.687 1.686-1.687zm4.527 1.687a.57.57 0 1 0-1.14 0 .57.57 0 0&#10;    0 1.14 0zm-.569-1.687c.93 0 1.687.756 1.687 1.687 0 .93-.757 1.686-1.687&#10;    1.686s-1.686-.756-1.686-1.686c0-.93.756-1.687 1.686-1.687z"/></svg>