<svg xmlns="http://www.w3.org/2000/svg" class="MuiSvgIcon-root czyIcon" focusable="false" viewBox="0 0 24 24" aria-hidden="true" style="margin-top:5px"><path xmlns="http://www.w3.org/2000/svg" fill-rule="evenodd" d="M15.176 13.378c.02.036.045.07.073.097l3.46 3.47-1.765 1.765-3.472-3.473a.414.414 0 0&#10;      0-.285-.113h-.014a.414.414 0 0 0-.352.218l-1.506 2.773-4.25-11.05 11.05 4.25-2.773&#10;      1.497a.418.418 0 0 0-.166.566m4.427 3.269a.413.413 0 0 1-.001.597l-2.36 2.351a.415.415&#10;      0 0 1-.586 0l-3.376-3.367-1.665 3.074a.416.416 0 0 1-.755-.051L5.956 6.49a.414.414 0&#10;      0 1 .327-.57h.001c.071-.01.142 0 .208.026L19.26 10.86a.415.415 0 0 1 .251.506.415.415&#10;      0 0 1-.2.249l-3.074 1.673 3.366 3.359zM7.64 4.722a.417.417 0 0 1-.417-.416V.416a.417.417&#10;      0 0 1 .834 0v3.89c0 .23-.187.416-.417.416zm2.821.553a.418.418 0 0 1-.299-.71l1.668-1.668a.413.413&#10;      0 0 1 .243-.127H12.125a.417.417 0 0 1 .298.716L10.758 5.15a.414.414 0&#10;      0 1-.298.125zM4.86 9.99a.404.404 0 0 1 .31.128.415.415 0 0 1-.012.589l-1.665 1.664a.413.413 0&#10;      0 1-.293.125h-.005a.416.416 0 0 1-.418-.413.415.415 0 0 1 .12-.297l1.667-1.668a.412.412 0&#10;      0 1 .244-.126l.02-.002h.032zm-2.24-6.785a.417.417 0 0 1 .212-.712l.025-.003h.033a.406.406 0&#10;      0 1 .329.131l1.663 1.664a.417.417 0 0 1-.005.592.417.417 0 0 1-.592-.007L2.62&#10;      3.206zm2.103 4.433c0 .23-.187.417-.416.417H.416a.417.417 0 0 1 0-.834h3.89c.23&#10;      0 .416.187.416.417z"/></svg>