<svg xmlns="http://www.w3.org/2000/svg" class="MuiSvgIcon-root czyIcon" focusable="false" viewBox="0 0 24 24" aria-hidden="true" style="margin-top:6px"><path xmlns="http://www.w3.org/2000/svg" fill-rule="evenodd" d="M12.273 10.247a.38.38 0 0 0 .126.584l1.757.76-1.822.872a.38.38 0 0&#10;    0-.129.592l1.4 1.643-2.178-.243a.38.38 0 0 0-.38.57l2.08 3.503-3.373-2.85a.38.38&#10;    0 0 0-.611.193l-.809 3.146-.827-3.12a.38.38 0 0 0-.254-.265.375.375 0 0 0-.114&#10;    0 .38.38 0 0 0-.247.091l-3.305 2.805 2.01-3.416a.38.38 0 0 0-.348-.573l-2.16.137&#10;    1.317-1.568a.38.38 0 0 0-.129-.584l-1.931-.911 1.825-.782a.38.38 0 0 0 .137-.596L2&#10;    7.548l3.036 1.443a.38.38 0 0 0 .54-.38l-.244-2.156 1.606 1.34a.38.38 0 0 0 .618-.224l.846-4.759.65&#10;    4.642a.38.38 0 0 0 .622.235l2.478-2.11-1.12 2.82a.38.38 0 0 0 .543.466l3.989-2.296-3.29&#10;    3.678zm5.439-5.427a.38.38 0 0 0-.486-.091l-5.085 2.937 1.275-3.226a.38.38 0 0&#10;    0-.6-.44L9.704 6.657 8.82.327A.38.38 0 0 0 8.44 0a.38.38 0 0 0-.38.315L6.923&#10;    6.767 5.086 5.226a.38.38 0 0 0-.623.334l.273 2.421L.702 6.076a.38.38 0 0 0-.448.58l3.147&#10;    3.66-2.126.933a.38.38 0 0 0 0 .69l2.243 1.055-1.552 1.868a.38.38 0 0 0 .315.622l2.323-.144-2.809&#10;    4.74a.38.38 0 0 0 .573.482l4.554-3.883 1.063 3.943a.38.38 0 0 0 .38.281.38.38 0 0 0 .379-.284l.998-3.966&#10;    4.63 3.909a.38.38 0 0 0 .573-.482l-2.842-4.786 2.375.266a.38.38 0 0 0 .33-.623l-1.7-1.992&#10;    2.137-.975a.38.38 0 0 0 0-.691l-2.05-.896 4.517-5.07a.38.38 0 0 0 0-.493z"/></svg>