<svg xmlns="http://www.w3.org/2000/svg" class="MuiSvgIcon-root czyIcon" focusable="false" viewBox="0 0 24 24" aria-hidden="true" style="margin-top:8px"><path xmlns="http://www.w3.org/2000/svg" fill-rule="evenodd" d="M11.933 8.911a2.487 2.487 0 0 0-.355-.489 2.61 2.61 0 0&#10;      0-.49-.378l1.645-.8-.8 1.667zm-1 2.022c-.51.511-1.355.511-1.889 0A1.31 1.31 0&#10;      0 1 8.667 10c0-.356.133-.689.4-.933.244-.245.577-.4.933-.4.355 0 .689.133.933.4a1.29 1.29 0&#10;      0 1 0 1.866zm-3.666 1.8l.8-1.644c.089.178.222.333.355.489.156.155.311.266.49.355l-1.645.8zm6.244-6.822L9.533&#10;      7.844a2.145 2.145 0 0 0-.977.49c-.023.022-.045.044-.067.044l-.067.066-.066.067c-.023.022-.045.045-.045.067a2.39 2.39&#10;      0 0 0-.489.978l-1.91 3.977a.438.438 0 0 0 .088.511c.089.09.2.134.311.134.067&#10;      0 .133-.022.2-.045L10.49 12.2c.355-.089.689-.244.977-.489.023 0 .023-.022.045-.022l.089-.067.067-.089c.022&#10;      0 .022-.022.022-.044.244-.289.422-.622.489-.978l1.933-3.978a.438.438 0 0&#10;      0-.089-.51c-.155-.156-.355-.2-.51-.112zm-3.067 10.956V16c0-.244-.2-.444-.444-.444s-.444.2-.444.444v.867a6.888 6.888&#10;      0 0 1-6.423-6.423H4c.244 0 .444-.2.444-.444s-.2-.444-.444-.444h-.867a6.888 6.888 0&#10;      0 1 6.423-6.423V4c0 .244.2.444.444.444s.444-.2.444-.444v-.867a6.888 6.888 0&#10;      0 1 6.423 6.423H16c-.244 0-.444.2-.444.444s.2.444.444.444h.867a6.888 6.888 0&#10;      0 1-6.423 6.423zM10 2.222c-4.289 0-7.778 3.49-7.778 7.778 0 4.289 3.49 7.778&#10;      7.778 7.778 4.289 0 7.778-3.49 7.778-7.778 0-4.289-3.49-7.778-7.778-7.778zm0&#10;      16.89C4.978 19.111.889 15.021.889 10S4.978.889 10 .889 19.111 4.978 19.111 10&#10;      15.022 19.111 10 19.111zM10 0C4.489 0 0 4.489 0 10s4.489 10 10 10 10-4.489 10-10S15.511&#10;      0 10 0z"/></svg>