<svg xmlns="http://www.w3.org/2000/svg" class="MuiSvgIcon-root czyIcon" focusable="false" viewBox="0 0 24 24" aria-hidden="true" style="margin-top:7px"><g xmlns="http://www.w3.org/2000/svg"><path d="M17.75,11.5l-2.67-2.01l-0.05-0.04l0,0l-2.14-1.62v1.22l1.73,1.31l1.52,1.15l-6.28,4.74l-6.28-4.74&#10;l1.98-1.5l1.25-0.94V7.84L1.94,11.5l0.01,0.01l-0.01,0.01v2.79l7.9,5.96l7.9-5.96v-2.79L17.75,11.5L17.75,11.5z M16.78,13.82&#10;l-6.93,5.23l-6.93-5.23v-1.59l6.93,5.23l6.93-5.23V13.82z"/><path d="M7.76,7.29v3.54c0,1.14,0.93,2.07,2.07,2.07s2.07-0.93,2.07-2.07V7.3c0.93-0.65,1.55-1.74,1.55-2.96&#10;c0-1.99-1.62-3.61-3.61-3.61S6.24,2.35,6.24,4.34C6.24,5.56,6.84,6.63,7.76,7.29z M10.94,10.83c0,0.61-0.5,1.1-1.1,1.1&#10;c-0.61,0-1.1-0.49-1.1-1.1V7.78c0.35,0.11,0.72,0.18,1.11,0.18c0.38,0,0.75-0.06,1.09-0.17V10.83z M9.85,1.7&#10;c1.46,0,2.64,1.18,2.64,2.64S11.3,6.98,9.85,6.98c-1.46,0-2.64-1.18-2.64-2.64C7.21,2.89,8.39,1.7,9.85,1.7z"/><path d="M9.85,3.24c0.61,0,1.1,0.49,1.1,1.1c0,0.27,0.22,0.49,0.49,0.49c0.27,0,0.49-0.22,0.49-0.49&#10;c0-1.14-0.93-2.07-2.07-2.07c-0.27,0-0.49,0.22-0.49,0.49S9.58,3.24,9.85,3.24z"/></g></svg>