<svg xmlns="http://www.w3.org/2000/svg" class="MuiSvgIcon-root czyIcon" focusable="false" viewBox="0 0 24 24" aria-hidden="true" style="margin-top:7px"><path xmlns="http://www.w3.org/2000/svg" d="M7.82,14.92c-0.2,0.96-1.04,1.65-2.02,1.65c-0.99,0-1.84-0.71-2.03-1.68c-0.98-0.18-1.68-1.03-1.68-2.03&#10;  v-1.65c0-1.14,0.92-2.06,2.06-2.06c0.38,0,0.73-0.19,0.94-0.5l0.7-1.05c0.38-0.57,1.03-0.92,1.71-0.92h5.96&#10;  c0.47,0,0.92,0.16,1.29,0.45L18,9.73c0.2,0.16,0.45,0.25,0.7,0.25h0.7c1.61,0,2.47,1.49,2.47,2.89c0,1.05-0.7,1.86-1.68,2.03&#10;  c-0.18,0.97-1.03,1.68-2.03,1.68c-0.98,0-1.82-0.69-2.02-1.65H7.82z M7.82,14.1h8.33c0.2-0.96,1.04-1.65,2.02-1.65&#10;  c0.96,0,1.79,0.66,2.01,1.6c0.48-0.13,0.88-0.54,0.88-1.19c0-0.83-0.44-2.06-1.65-2.06h-0.7c-0.44,0-0.88-0.15-1.22-0.43l-3.25-2.6&#10;  C14.02,7.6,13.75,7.5,13.46,7.5H7.51c-0.41,0-0.8,0.21-1.03,0.55l-0.7,1.05C5.41,9.65,4.8,9.98,4.15,9.98&#10;  c-0.68,0-1.24,0.55-1.24,1.24v1.65c0,0.56,0.37,1.03,0.88,1.18c0.22-0.93,1.05-1.59,2.01-1.6C6.78,12.45,7.62,13.14,7.82,14.1z&#10;  M16.93,14.51C16.93,14.51,16.93,14.51,16.93,14.51c0,0.69,0.56,1.24,1.24,1.24c0.68,0,1.24-0.55,1.24-1.24&#10;  c0-0.68-0.55-1.24-1.24-1.24C17.49,13.27,16.93,13.83,16.93,14.51z M5.8,15.75c0.68,0,1.24-0.55,1.24-1.24&#10;  c0-0.68-0.55-1.24-1.24-1.24c-0.68,0-1.24,0.55-1.24,1.24C4.56,15.19,5.12,15.75,5.8,15.75z M15.69,9.98c0.23,0,0.41,0.18,0.41,0.41&#10;  s-0.18,0.41-0.41,0.41h-4.12c-0.23,0-0.41-0.18-0.41-0.41V8.74c0-0.23,0.18-0.41,0.41-0.41c0.23,0,0.41,0.18,0.41,0.41v1.24H15.69z&#10;  M9.92,9.98c0.23,0,0.41,0.18,0.41,0.41s-0.18,0.41-0.41,0.41h-3.3c-0.23,0-0.41-0.19-0.41-0.41c0-0.06,0.01-0.13,0.04-0.18&#10;  l0.82-1.65c0.1-0.2,0.35-0.29,0.55-0.18c0.2,0.1,0.29,0.35,0.18,0.55l0,0L7.29,9.98H9.92z M13.22,11.63c0.23,0,0.41,0.18,0.41,0.41&#10;  s-0.18,0.41-0.41,0.41h-0.82c-0.23,0-0.41-0.18-0.41-0.41s0.18-0.41,0.41-0.41H13.22z"/></svg>