<svg xmlns="http://www.w3.org/2000/svg" class="MuiSvgIcon-root czyIcon" focusable="false" viewBox="0 0 24 24" aria-hidden="true" style="margin-top:8px"><path xmlns="http://www.w3.org/2000/svg" fill-rule="evenodd" d="M15.123 11.555c-.4 0-.82-.1-1.26-.28-.2-.08-.44 0-.52.2-.02.06-.04.1-.04.16&#10;0 .16.08.3.24.36 1.5.64 2.3 1.92 2.36 3.78.04 1.06-.18 2.02-.3 2.48-1.14-.04-5.24-.46-5.24-4.04&#10;0-.22-.18-.4-.4-.4-.22 0-.4.18-.4.4 0 3.58-4.08 4-5.24 4.04-.2-.82-.66-3.18.22-4.78.4-.72 1-1.18 1.86-1.4.18-.04.3-.2.3-.38&#10;0-.04 0-.06-.02-.1a.388.388 0 0 0-.48-.28c-.32.08-.64.12-.96.12-2.54&#10;0-3.98-2.96-4.38-3.9.58-.36 2.08-1.18 3.66-1.18 1.14 0 2.12.44 2.9 1.28.14.16.4.18.56.02.08-.08.12-.18.12-.3&#10;0-.1-.04-.2-.1-.26-.6-.66-.84-1.34-.76-2.14.18-1.82 2.06-3.52 2.74-4.08.68.56 2.56 2.26 2.74 4.08.08.78-.16&#10;1.46-.74 2.1a.47.47 0 0 0-.1.26c0 .1.04.22.12.3.16.14.42.14.56-.02.76-.84 1.72-1.26 2.86-1.26 1.6 0 3.1.84 3.68&#10;1.18-.34.98-1.68 4.04-3.98 4.04m4.7-4.5c-.08-.06-2.12-1.5-4.4-1.5-.72&#10;0-1.38.14-1.96.42.08-.34.1-.7.06-1.08-.26-2.54-3.18-4.72-3.3-4.82a.39.39 0 0&#10;0-.46 0c-.12.1-3.04 2.26-3.28 4.82-.04.38-.02.74.06 1.1-.6-.28-1.28-.42-2-.42-2.28&#10;0-4.3 1.42-4.38 1.48-.14.1-.2.28-.14.46s1.48 4.16 4.58 4.68c-.28.26-.52.56-.72.92-1.24&#10;2.24-.24 5.54-.2 5.68.04.16.2.28.36.28h.06c.3 0 1.84-.04 3.32-.64 1.24-.5 2.1-1.28&#10;2.56-2.3.46 1 1.32 1.78 2.56 2.3 1.46.6 3.02.64 3.32.64h.06c.16 0 .32-.12.36-.26.02-.06.48-1.42.42-3-.04-1.44-.5-2.6-1.3-3.44&#10;3.08-.26 4.5-4.64 4.56-4.84.06-.2 0-.38-.14-.48m-9.84 4.62c-.66 0-1.18-.52-1.18-1.18 0-.66.52-1.18 1.18-1.18.66&#10;0 1.18.52 1.18 1.18 0 .66-.52 1.18-1.18 1.18m0-3.14c-1.08 0-1.98.88-1.98 1.98 0 1.08.88 1.98 1.98 1.98 1.08&#10;0 1.98-.88 1.98-1.98s-.9-1.98-1.98-1.98"/></svg>