<svg xmlns="http://www.w3.org/2000/svg" class="MuiSvgIcon-root czyIcon" focusable="false" viewBox="0 0 24 24" aria-hidden="true" style="margin-top:5px"><path xmlns="http://www.w3.org/2000/svg" fill-rule="evenodd" d="M16.248 14.91c.572.594 1.34.921 2.165.921a2.97 2.97 0 0 0 1.345-.318.246.246 0&#10;      0 1 .358.216v4.387h-4.387a.235.235 0 0 1-.206-.115.246.246 0 0 1-.01-.244c.211-.42.318-.872.318-1.344&#10;      0-.824-.327-1.593-.922-2.165a2.977 2.977 0 0 0-2.2-.836 3.024 3.024 0 0 0-2.88&#10;      2.83 3.01 3.01 0 0 0 .311 1.51.253.253 0 0 1-.01.25.232.232 0 0 1-.203.114H5.54v-4.387a1.078&#10;      1.078 0 0 0-1.567-.962 2.143 2.143 0 0 1-.97.23 2.15 2.15 0 0 1-1.563-.666 2.153 2.153&#10;      0 0 1-.604-1.59 2.182 2.182 0 0 1 2.042-2.078c.38-.02.757.056 1.091.224.342.17.74.153&#10;      1.063-.046.318-.197.508-.539.508-.914V5.54h4.387a1.078 1.078 0 0 0 .962-1.567 2.143&#10;      2.143 0 0 1-.23-.97c0-.595.237-1.15.666-1.563a2.152 2.152 0 0 1 1.59-.604 2.182 2.182&#10;      0 0 1 2.078 2.042c.02.38-.056.756-.224 1.091-.17.342-.153.74.046 1.063.197.318.539.508.914.508h4.387v4.387c0&#10;      .116-.071.178-.113.204a.253.253 0 0 1-.25.01 3.009 3.009 0 0 0-1.511-.311 3.024 3.024 0 0 0-2.83&#10;      2.878 2.98 2.98 0 0 0 .836 2.201m2.04-4.246a2.182 2.182 0 0 0-2.042 2.078 2.153 2.153 0 0&#10;      0 .604 1.59c.413.429.968.665 1.563.665.341 0 .667-.077.97-.229a1.078 1.078 0 0 1 1.567.962v4.804c0&#10;      .23-.187.417-.417.417h-4.804a1.078 1.078 0 0 1-.962-1.567c.152-.302.23-.629.23-.97a2.15 2.15 0 0&#10;      0-.666-1.563 2.154 2.154 0 0 0-1.59-.604 2.182 2.182 0 0 0-2.078 2.042c-.02.38.056.756.224&#10;      1.091.17.342.153.74-.046 1.063a1.067 1.067 0 0 1-.914.508H5.123a.417.417 0&#10;      0 1-.417-.417V15.73a.235.235 0 0 0-.115-.206.246.246 0 0 0-.243-.01 2.97 2.97&#10;      0 0 1-1.345.318 2.978 2.978 0 0 1-2.165-.922 2.98 2.98 0 0 1-.836-2.2 3.024 3.024&#10;      0 0 1 2.83-2.88 3.009 3.009 0 0 1 1.51.311.253.253 0 0 0 .25-.01.232.232 0 0&#10;      0 .114-.203V5.123c0-.23.187-.417.417-.417h4.804c.118 0 .18-.072.206-.115a.246.246&#10;      0 0 0 .01-.243 2.97 2.97 0 0 1-.318-1.345c0-.824.327-1.593.922-2.165a2.978 2.978&#10;      0 0 1 2.2-.836 3.024 3.024 0 0 1 2.88 2.83 3.01 3.01 0 0 1-.311 1.51.253.253 0 0&#10;      0 .01.25.232.232 0 0 0 .203.114h4.804c.23 0 .417.187.417.417v4.804c0&#10;      .375-.19.717-.508.914-.323.2-.72.217-1.063.046a2.175 2.175 0 0 0-1.09-.224z"/></svg>