<svg xmlns="http://www.w3.org/2000/svg" class="MuiSvgIcon-root czyIcon" focusable="false" viewBox="0 0 24 24" aria-hidden="true" style="margin-top:4px"><path xmlns="http://www.w3.org/2000/svg" fill-rule="evenodd" d="M16.89 5.113l-1.874.763-2.238.936-.323-.786-.309-.862 6.218-2.528.655&#10;      1.592-2.13.885zm-3.278 3.656l-.281-.72-.169-.408 1.925-.791 1.732-.712.454 1.143-3.661&#10;      1.488zm-.31 4.355a2.074 2.074 0 0 1-3.834 0 2.092 2.092 0&#10;      0 1-.13-.534c.182-.094.402-.206.669-.328.128.37.36.695.67.937.261.188.576.288.898.285a1.88 1.88 0 0&#10;      0 .351-.08.476.476 0 0 0-.168-.936.642.642 0 0 1-.515-.089 1.153 1.153 0 0 1-.36-.534 55.773 55.773&#10;      0 0 1 2.134-.838c.493.593.603 1.415.286 2.117zm-5.06-.993a4.303 4.303 0 0 0-1.728 2.547 4.794 4.794&#10;      0 0 0-4.144-.688 4.363 4.363 0 0 0-.43-1.967 4.079 4.079 0 0 0 2.163-1.872 4.49 4.49 0 0&#10;      0 .388-2.81l6.447-2.645.16.393 1.006 2.458.211.51.782 1.911c-2.52.941-4.153 1.662-4.855 2.163zm-.909 8.26l-4.77&#10;      1.975a13.78 13.78 0 0 1-.708-1.976c.628-.51 2.613-1.9 4.959-1.404.147.477.32.946.52 1.404zm-5.29-5.296a3.942 3.942 0&#10;      0 1 4.312.679 8.636 8.636 0 0 0 .192 2.214 7.023 7.023 0 0 0-4.93 1.405 7.365 7.365 0 0 1 .426-4.298zM20.059&#10;      4.326l.005-.023-1.007-2.458a.468.468 0 0 0-.609-.258l-.318.131L17.545.29a.468.468 0 1&#10;      0-.867.356l.586 1.428-5.473 2.243-.164-.393a.468.468 0 0 0-.609-.258L3.775 6.64a.468.468&#10;      0 0 0-.276.567 3.82 3.82 0 0 1-.042 2.092A2.762 2.762 0 0 1 .882 7.87a.472.472 0 0&#10;      0-.82.469 3.69 3.69 0 0 0 2.875 1.872 3.745 3.745 0 0 1-1.78 1.1.468.468 0 0&#10;      0-.266.684c.225.38.791 1.634.468 2.341-.384.843-1.264 2.81-.468 5.993a.398.398&#10;      0 0 0 0 .052c.246.953.584 1.88 1.011 2.767.106.224.37.327.6.234l5.618-2.313a.468.468&#10;      0 0 0 .239-.646c-.028-.052-2.491-5.024.121-7.323a3.01 3.01 0 1 0 5.426-2.449.468.468&#10;      0 0 0 .23-.224.468.468 0 0 0 0-.365l-.182-.468 4.106-1.62a.468.468 0 0 0 .257-.61l-.641-1.558&#10;      2.125-.871a.468.468 0 0 0 .258-.609z"/></svg>